<svg width="90" height="64" viewBox="0 0 90 64" fill="none" xmlns="http://www.w3.org/2000/svg">
<path d="M71.1964 23.6442C71.0152 21.6846 71.1538 16.3575 76.257 8.94999C76.643 8.391 76.573 7.63711 76.0936 7.15786C74.013 5.07732 72.7249 3.76444 71.8214 2.84574C70.6334 1.63439 70.091 1.08244 69.2972 0.362722C68.7672 -0.113716 67.9652 -0.122013 67.4295 0.345003C58.5347 8.08486 48.6553 24.0781 50.0849 43.6723C50.9225 55.1776 59.3148 63.5287 70.0388 63.5287C81.0443 63.5287 89.9981 54.5762 89.9981 43.5706C89.9981 32.9537 81.6651 24.247 71.1964 23.6442ZM70.0388 60.7162C60.8294 60.7162 53.6183 53.4624 52.8892 43.4691C52.8892 43.4691 52.8892 43.4691 52.8892 43.4677C51.281 21.4305 64.3808 7.11666 68.3387 3.32639C68.7245 3.70678 69.1654 4.15439 69.815 4.81632C70.5977 5.61282 71.6689 6.70322 73.2894 8.32927C67.0944 17.8736 68.2632 24.6741 68.7753 25.6492C69.0184 26.112 69.517 26.4238 70.0388 26.4238C79.4939 26.4238 87.1856 34.1155 87.1856 43.5706C87.1856 53.0244 79.4939 60.7162 70.0388 60.7162Z" fill="white"/>
<path d="M21.2527 23.6441C21.07 21.6899 21.2046 16.367 26.3132 8.94988C26.6978 8.3909 26.6291 7.63701 26.1498 7.15775C24.0734 5.08129 22.7866 3.76982 21.8844 2.85111C20.6925 1.6371 20.1485 1.0836 19.3548 0.362615C18.8247 -0.113823 18.0227 -0.120714 17.4872 0.343489C8.59237 8.08335 -1.2885 24.074 0.138279 43.6722V43.6736C0.978795 55.1775 9.37228 63.5286 20.0963 63.5286C31.1019 63.5286 40.0558 54.5761 40.0558 43.5705C40.0558 32.9523 31.7227 24.2443 21.2527 23.6441ZM20.0963 60.7161C10.8885 60.7161 3.67317 53.4623 2.94262 43.4676V43.469C1.33865 21.4263 14.4384 7.11515 18.3962 3.32629C18.7835 3.70668 19.2257 4.1571 19.8767 4.82043C20.658 5.61693 21.7279 6.70593 23.3456 8.32916C17.1507 17.8749 18.3194 24.674 18.8316 25.6477C19.0747 26.1105 19.5745 26.4237 20.0963 26.4237C29.5515 26.4237 37.2433 34.1154 37.2433 43.5705C37.2433 53.0243 29.5515 60.7161 20.0963 60.7161Z" fill="white"/>
</svg>
